<svg width="51" height="52" viewBox="0 0 51 52" fill="none" xmlns="http://www.w3.org/2000/svg">
<path d="M25.4728 51.0273C26.1965 51.0315 26.9051 50.8201 27.5082 50.42C28.1113 50.02 28.5816 49.4493 28.8592 48.7809C29.1367 48.1125 29.2089 47.3765 29.0665 46.6669C28.9242 45.9573 28.5737 45.3062 28.0598 44.7965L8.748 25.5212L28.0598 6.24577C28.6568 5.54872 28.9687 4.65208 28.9333 3.73504C28.8978 2.818 28.5177 1.94809 27.8688 1.29916C27.2198 0.650231 26.3499 0.270072 25.4329 0.234651C24.5158 0.19923 23.6192 0.511156 22.9221 1.1081L1.05971 22.9705C0.381058 23.6532 0.000135422 24.5767 0.000135422 25.5394C0.000135422 26.502 0.381058 27.4255 1.05971 28.1082L22.9221 49.9706C23.6008 50.6438 24.5169 51.0233 25.4728 51.0273Z" fill="white"/>
<path d="M47.3351 51.0273C48.0588 51.0315 48.7674 50.8201 49.3705 50.42C49.9736 50.0199 50.4439 49.4493 50.7215 48.7808C50.999 48.1124 51.0712 47.3765 50.9288 46.6669C50.7865 45.9573 50.436 45.3061 49.9221 44.7965L30.6103 25.5211L49.9221 6.2457C50.6083 5.55957 50.9937 4.62898 50.9937 3.65865C50.9937 2.68831 50.6083 1.75772 49.9221 1.07159C49.236 0.385464 48.3054 7.22955e-09 47.3351 0C46.3647 -7.22955e-09 45.4341 0.385464 44.748 1.07159L22.8856 22.934C22.2069 23.6167 21.826 24.5402 21.826 25.5029C21.826 26.4655 22.2069 27.389 22.8856 28.0717L44.748 49.9341C45.0855 50.2784 45.4879 50.5523 45.932 50.74C46.3761 50.9276 46.853 51.0253 47.3351 51.0273Z" fill="white"/>
</svg>
