<svg width="51" height="52" viewBox="0 0 51 52" fill="none" xmlns="http://www.w3.org/2000/svg">
<path d="M25.5272 51.0273C24.8035 51.0315 24.0949 50.8201 23.4918 50.42C22.8887 50.02 22.4184 49.4493 22.1408 48.7809C21.8633 48.1125 21.7911 47.3765 21.9335 46.6669C22.0758 45.9573 22.4263 45.3062 22.9402 44.7965L42.252 25.5212L22.9402 6.24577C22.3432 5.54872 22.0313 4.65208 22.0667 3.73504C22.1022 2.818 22.4823 1.94809 23.1312 1.29916C23.7802 0.650231 24.6501 0.270072 25.5671 0.234651C26.4842 0.19923 27.3808 0.511156 28.0779 1.1081L49.9403 22.9705C50.6189 23.6532 50.9999 24.5767 50.9999 25.5394C50.9999 26.502 50.6189 27.4255 49.9403 28.1082L28.0779 49.9706C27.3992 50.6438 26.4831 51.0233 25.5272 51.0273Z" fill="white"/>
<path d="M3.66493 51.0273C2.94119 51.0315 2.2326 50.8201 1.62949 50.42C1.02638 50.0199 0.556077 49.4493 0.278545 48.7808C0.00101338 48.1124 -0.0711746 47.3765 0.0711851 46.6669C0.213545 45.9573 0.564002 45.3061 1.07788 44.7965L20.3897 25.5211L1.07788 6.2457C0.391746 5.55957 0.0062819 4.62898 0.00628191 3.65865C0.00628192 2.68831 0.391746 1.75772 1.07788 1.07159C1.76401 0.385464 2.6946 7.22955e-09 3.66493 0C4.63526 -7.22955e-09 5.56586 0.385464 6.25199 1.07159L28.1144 22.934C28.7931 23.6167 29.174 24.5402 29.174 25.5029C29.174 26.4655 28.7931 27.389 28.1144 28.0717L6.25199 49.9341C5.91452 50.2784 5.51209 50.5523 5.06801 50.74C4.62393 50.9276 4.14702 51.0253 3.66493 51.0273Z" fill="white"/>
</svg>
