<svg width="192" height="124" viewBox="0 0 192 124" fill="none" xmlns="http://www.w3.org/2000/svg">
<g clip-path="url(#clip0_0_1217)">
<path fill-rule="evenodd" clip-rule="evenodd" d="M103.913 0.859987C103.614 1.34249 99.1699 2.91063 94.0413 4.34259C88.1812 5.97688 84.5508 7.5528 84.2784 8.58396C84.041 9.48672 82.4262 10.8525 80.6946 11.623C78.963 12.3895 77.5428 13.7009 77.5428 14.5375C77.5428 15.3741 76.9396 16.0628 76.2042 16.0784C75.4688 16.09 73.0018 19.024 70.7215 22.6C67.2662 28.0165 66.6786 29.7325 67.1922 32.8999C67.558 35.1412 67.1884 38.1919 66.2895 40.3359C65.4529 42.336 65.0249 44.6357 65.3362 45.445C65.6475 46.2544 65.3867 47.235 64.7564 47.6241C62.9314 48.7525 63.4256 53.0406 65.7214 55.9551C66.881 57.4299 67.5191 58.9435 67.1417 59.3249C66.7642 59.7023 66.3712 62.9631 66.27 66.5663C66.1066 72.3953 66.4529 73.6016 69.4258 77.4966C71.92 80.7691 73.8423 82.0999 77.0214 82.7614C79.5817 83.2945 81.4106 83.24 81.6129 82.6291C81.8036 82.0571 83.1927 82.2594 84.7959 83.0921C87.2551 84.3684 87.8894 84.3451 89.4614 82.9209C90.9206 81.6018 92.7845 81.4267 98.882 82.0259C103.691 82.5007 106.485 82.3878 106.485 81.7147C106.485 81.131 107.719 80.8897 109.225 81.1777C113.956 82.0804 124.533 76.2476 122.91 73.6249C122.618 73.1502 122.957 72.0684 123.661 71.2163C124.517 70.189 125.046 63.6596 125.252 51.7059C125.42 41.8262 126.085 31.4913 126.723 28.7402C127.653 24.7596 127.564 22.7945 126.287 19.094C123.034 9.63847 120.957 6.98469 114.299 3.73945C112.408 2.81725 110.571 1.59542 110.217 1.02342C109.435 -0.245106 104.684 -0.365732 103.921 0.863878L103.913 0.859987Z" fill="#DD0200"/>
<path fill-rule="evenodd" clip-rule="evenodd" d="M101.548 23.802C101.104 24.518 100.439 26.592 100.065 28.413C99.4853 31.2575 98.7577 31.8567 94.8976 32.6739C89.9753 33.7167 87.1503 32.4054 87.1503 29.0784C87.1503 28.0628 86.2553 26.4207 85.1619 25.4324C82.8311 23.3234 81.1696 24.623 80.5587 29.0317C80.259 31.1758 79.4146 31.8217 76.2239 32.3353C72.2277 32.9813 68.9357 34.9424 68.9357 36.6779C68.9357 37.1954 71.6284 37.6195 74.9203 37.6195C79.2279 37.6195 80.7804 37.9931 80.4614 38.9581C79.9555 40.4951 73.0098 45.8377 67.8929 48.6199C65.0017 50.1919 64.6399 50.7795 65.7333 52.1025C67.7645 54.55 70.2276 54.0286 75.9787 49.9312L81.2591 46.1684L81.796 53.0597C82.0918 56.8497 82.7338 60.3479 83.2241 60.8382C84.4537 62.0639 87.1542 58.1143 87.1542 55.0948C87.1542 53.0675 87.7262 52.62 90.3333 52.62C92.3606 52.62 94.8821 51.4137 97.2985 49.2931L101.088 45.9661V51.8846C101.088 58.807 101.812 61.1923 103.91 61.1923C106.007 61.1923 107.521 56.624 107.521 49.6471V43.6003L112.116 48.1101C117.038 52.943 120.206 53.7134 123.128 50.7912C125.241 48.6782 125.735 49.1724 113.953 41.6469L106.988 37.1993L110.774 36.5417C118.019 35.2848 119.128 32.2575 112.346 32.2575C108.509 32.2575 107.633 31.4676 105.917 26.4441C104.731 22.9732 102.797 21.8019 101.559 23.802H101.548ZM98.209 40.7636L95.1934 44.9855L91.7108 41.6274C89.7963 39.7791 88.2282 37.8802 88.2282 37.4055C88.2282 36.9308 91.1543 36.5456 94.7264 36.5456H101.225L98.209 40.7675V40.7636ZM90.4383 45.7326C91.6018 47.1335 91.5785 47.5887 90.3022 48.3942C87.8468 49.9468 87.1542 49.581 87.1542 46.721C87.1542 43.6547 88.4033 43.2812 90.4383 45.7326Z" fill="#F5E3BF"/>
<path d="M4.23602 105.949C5.32166 105.867 6.31002 105.684 7.20499 105.396C8.09996 105.108 8.86263 104.809 9.50078 104.497C10.1389 104.186 10.816 103.778 11.5359 103.264L14.2169 106.54C14.1858 106.556 14.0418 106.661 13.785 106.852C13.5281 107.042 13.174 107.276 12.7188 107.544C12.2635 107.817 11.7149 108.108 11.0689 108.42C10.423 108.731 9.69534 109.019 8.88986 109.28C8.08439 109.544 7.20499 109.762 6.25554 109.937C5.30609 110.112 4.29828 110.202 3.22821 110.202H-0.00146484V92.252H4.23602V105.941V105.949Z" fill="#0F1C2A"/>
<path d="M14.9332 92.2598H23.6222V96.4934H21.3965V105.972H23.6222V110.21H14.9332V105.972H17.159V96.4934H14.9332V92.2598Z" fill="#0F1C2A"/>
<path d="M42.381 92.2598V110.21H38.1435V109.132C38.1435 107.968 37.9957 106.848 37.6999 105.77C37.4042 104.692 36.9801 103.68 36.4314 102.731C35.8828 101.781 35.2135 100.91 34.4314 100.112C33.6492 99.3145 32.7737 98.6218 31.797 98.0304V110.21H27.5595V96.5439C27.4311 96.5284 27.2988 96.5167 27.1665 96.5089C27.0303 96.5011 26.898 96.4973 26.7735 96.4973H24.8124V92.2637H26.7735C27.8436 92.2637 28.9059 92.4076 29.9682 92.6956C31.0305 92.9835 32.05 93.3765 33.0305 93.8785C34.0111 94.3805 34.9372 94.9719 35.8049 95.649C36.6727 96.326 37.4509 97.0654 38.1396 97.8631V92.2637H42.3771L42.381 92.2598Z" fill="#0F1C2A"/>
<path d="M44.5373 89.9634H48.1522L47.5763 96.4967H45.0859L44.5373 89.9634Z" fill="#0F1C2A"/>
<path d="M60.4477 89.9404H64.6852V96.4971H54.537V99.1314H64.6852V104.326C64.6852 105.139 64.5296 105.906 64.2183 106.622C63.907 107.342 63.4867 107.96 62.9614 108.49C62.4361 109.015 61.8174 109.435 61.1053 109.747C60.3933 110.058 59.6345 110.213 58.8212 110.213H50.3034V105.976H58.8212C59.2687 105.976 59.65 105.816 59.9691 105.497C60.2882 105.178 60.4477 104.789 60.4477 104.326V103.346H50.2996V92.2673H60.4477V89.9443V89.9404Z" fill="#0F1C2A"/>
<path d="M86.4406 101.069C87.6703 101.98 88.643 103.12 89.359 104.49C90.075 105.863 90.4369 107.361 90.4369 108.988V110.21H86.1994V108.988C86.1994 108.206 86.0515 107.474 85.7558 106.785C85.4601 106.101 85.0593 105.501 84.5456 104.992C84.0359 104.482 83.4367 104.077 82.7518 103.782C82.067 103.486 81.3315 103.338 80.5494 103.338H79.8801V110.206H75.6426V103.338H73.2963V99.1277H75.6426V92.2598H79.8801V99.1277H80.1447C80.9269 99.1277 81.6584 98.9798 82.3471 98.6841C83.032 98.3883 83.6312 97.9876 84.141 97.4739C84.6507 96.9642 85.0554 96.3649 85.3511 95.6801C85.6469 94.9952 85.7947 94.2598 85.7947 93.4777V92.2559H90.0322V93.4777C90.0322 95.0108 89.7092 96.4311 89.0633 97.7385C88.4174 99.046 87.5419 100.155 86.4445 101.065L86.4406 101.069Z" fill="#0F1C2A"/>
<path d="M92.3516 92.2598H101.041V96.4934H98.8148V105.972H101.041V110.21H92.3516V105.972H94.5773V96.4934H92.3516V92.2598Z" fill="#0F1C2A"/>
<path d="M102.235 92.2598H117.384V96.4934H111.928V110.206H107.691V96.4934H102.235V92.2598Z" fill="#0F1C2A"/>
<path d="M118.578 92.2598H136.143V96.4934H125.59V103.863C125.59 104.439 125.792 104.933 126.201 105.346C126.606 105.762 127.108 105.968 127.695 105.968H136.143V110.206H127.695C126.816 110.206 125.995 110.039 125.232 109.704C124.466 109.369 123.796 108.914 123.22 108.342C122.645 107.77 122.193 107.097 121.855 106.33C121.52 105.564 121.353 104.743 121.353 103.867V96.4973H118.578V92.2637V92.2598Z" fill="#0F1C2A"/>
<path d="M149.98 92.2598H154.19V110.21H147.443V105.972H149.98V103.077H143.637V105.038C143.637 106.268 143.466 107.319 143.123 108.198C142.781 109.074 142.368 109.809 141.89 110.4C141.411 110.992 140.921 111.459 140.419 111.801C139.917 112.144 139.505 112.389 139.185 112.533L137.341 108.751C137.423 108.719 137.571 108.638 137.796 108.513C138.022 108.389 138.252 108.179 138.489 107.891C138.73 107.603 138.94 107.229 139.123 106.766C139.306 106.303 139.399 105.727 139.399 105.042V103.081H136.625V98.8436H139.399V92.2637H143.637V98.8436H149.98V92.2637V92.2598Z" fill="#0F1C2A"/>
<path d="M156.104 92.2598H172.284V96.4934H163.144V99.439H170.467V103.245H163.144V105.972H172.284V110.21H156.104V105.972H158.906V96.4934H156.104V92.2598Z" fill="#0F1C2A"/>
<path d="M191.044 92.2598V110.21H186.806V109.132C186.806 107.968 186.658 106.848 186.363 105.77C186.067 104.692 185.647 103.68 185.094 102.731C184.545 101.781 183.876 100.91 183.094 100.112C182.312 99.3145 181.436 98.6218 180.464 98.0304V110.21H176.226V96.5439C176.098 96.5284 175.965 96.5167 175.829 96.5089C175.693 96.5011 175.561 96.4973 175.436 96.4973H173.475V92.2637H175.436C176.506 92.2637 177.568 92.4076 178.631 92.6956C179.693 92.9835 180.713 93.3765 181.693 93.8785C182.674 94.3805 183.6 94.9719 184.468 95.649C185.335 96.326 186.114 97.0654 186.802 97.8631V92.2637H191.04L191.044 92.2598Z" fill="#0F1C2A"/>
<path d="M37.4282 122.697H33.8056L33.2842 123.86H31.9845L35.5838 116.047H35.6539L39.2532 123.86H37.9536L37.4321 122.697H37.4282ZM36.9613 121.666L35.6189 118.673L34.2686 121.666H36.9613Z" fill="#0F1C2A"/>
<path d="M43.9962 122.514L44.9457 121.833C45.2881 122.432 45.9223 122.775 46.6617 122.775C47.5216 122.775 48.1714 122.362 48.1714 121.779C48.1714 121.07 47.1636 120.642 46.2726 120.257C45.3737 119.856 44.3776 119.393 44.3776 118.191C44.3776 116.989 45.4671 116.062 46.8446 116.062C47.938 116.062 48.7551 116.588 49.0664 117.432L48.1753 118.051C47.938 117.533 47.4088 117.242 46.8562 117.242C46.1519 117.242 45.5916 117.677 45.5916 118.218C45.5916 118.817 46.2998 119.031 47.2298 119.428C48.4399 119.961 49.3816 120.545 49.3816 121.751C49.3816 123.109 48.2026 123.985 46.65 123.985C45.3931 123.985 44.4359 123.397 44.0001 122.514H43.9962Z" fill="#0F1C2A"/>
<path d="M54.9811 116.203H56.1835V123.86H54.9811V116.203Z" fill="#0F1C2A"/>
<path d="M67.0475 122.697H63.4248L62.9034 123.86H61.6038L65.2031 116.047H65.2731L68.8725 123.86H67.5728L67.0514 122.697H67.0475ZM66.5806 121.666L65.2381 118.673L63.8879 121.666H66.5806Z" fill="#0F1C2A"/>
<path d="M80.4493 116.183V123.992H80.391L75.492 118.875V123.868H74.2896V116.07H74.3519L79.2392 121.175V116.183H80.4454H80.4493Z" fill="#0F1C2A"/>
<path d="M93.5509 120.035C93.5509 117.879 95.3525 116.07 97.5043 116.07C98.4966 116.085 99.4149 116.506 100.166 117.237L99.4694 118.183C98.9324 117.646 98.2359 117.292 97.4849 117.292C96.0996 117.292 94.7727 118.506 94.7727 120.043C94.7727 121.58 96.1152 122.778 97.4888 122.778C98.2709 122.778 98.948 122.389 99.4733 121.868L100.166 122.837C99.5044 123.486 98.6639 123.984 97.5238 123.984C95.3525 123.984 93.5509 122.198 93.5509 120.039V120.035Z" fill="#0F1C2A"/>
<path d="M105.617 120.958V116.203H106.824V120.954C106.824 122.012 107.571 122.786 108.505 122.786C109.438 122.786 110.197 122.012 110.197 120.954V116.203H111.407V120.958C111.407 122.716 110.139 124.001 108.508 124.001C106.878 124.001 105.617 122.713 105.617 120.958Z" fill="#0F1C2A"/>
<path d="M117.376 116.203H118.578V123.86H117.376V116.203Z" fill="#0F1C2A"/>
<path d="M124.182 122.514L125.131 121.833C125.474 122.432 126.108 122.775 126.847 122.775C127.707 122.775 128.357 122.362 128.357 121.779C128.357 121.07 127.349 120.642 126.458 120.257C125.559 119.856 124.563 119.393 124.563 118.191C124.563 116.989 125.649 116.062 127.03 116.062C128.123 116.062 128.941 116.588 129.252 117.432L128.361 118.051C128.123 117.533 127.594 117.242 127.042 117.242C126.337 117.242 125.777 117.677 125.777 118.218C125.777 118.817 126.485 119.031 127.415 119.428C128.625 119.961 129.567 120.545 129.567 121.751C129.567 123.109 128.388 123.985 126.835 123.985C125.575 123.985 124.621 123.397 124.186 122.514H124.182Z" fill="#0F1C2A"/>
<path d="M135.167 116.203H136.369V123.86H135.167V116.203Z" fill="#0F1C2A"/>
<path d="M148.568 116.183V123.992H148.509L143.614 118.875V123.868H142.412V116.07H142.474L147.361 121.175V116.183H148.568Z" fill="#0F1C2A"/>
<path d="M155.817 117.386V119.347H158.716V120.545H155.817V122.666H159.175V123.864H154.615V116.207H159.175V117.389H155.817V117.386Z" fill="#0F1C2A"/>
</g>
<rect x="0.194559" y="0.194559" width="190.656" height="123.611" stroke="#F3F3F4" stroke-width="0.389117"/>
<defs>
<clipPath id="clip0_0_1217">
<rect width="191.045" height="124" fill="white"/>
</clipPath>
</defs>
</svg>
