<svg width="235" height="40" viewBox="0 0 235 40" fill="none" xmlns="http://www.w3.org/2000/svg">
<path fill-rule="evenodd" clip-rule="evenodd" d="M91.5036 0.333554C91.385 0.524076 89.6005 1.13575 87.5427 1.69228C85.1909 2.32903 83.7364 2.94572 83.623 3.34682C83.525 3.69778 82.8803 4.23426 82.184 4.53007C81.4878 4.83089 80.9204 5.3423 80.9204 5.66819C80.9204 5.99409 80.678 6.26483 80.3841 6.26984C80.0901 6.26984 79.0998 7.41799 78.1818 8.81182C76.7944 10.9226 76.5624 11.5945 76.7635 12.8278C76.9079 13.7052 76.7635 14.8935 76.4025 15.7308C76.0672 16.5129 75.897 17.4054 76.0208 17.7213C76.1446 18.0371 76.0414 18.4182 75.7887 18.5736C75.0564 19.0148 75.2575 20.6844 76.1755 21.8225C76.6397 22.3991 76.8976 22.9907 76.7429 23.1361C76.5881 23.2815 76.4334 24.555 76.3922 25.9589C76.3251 28.2351 76.4644 28.7014 77.6609 30.2256C78.6615 31.5041 79.4351 32.0205 80.709 32.2812C81.7353 32.4868 82.4677 32.4667 82.5502 32.2311C82.6276 32.0105 83.1846 32.0857 83.8293 32.4116C84.8144 32.9079 85.0722 32.8979 85.7014 32.3464C86.2842 31.83 87.0372 31.7648 89.4819 31.9954C91.4108 32.1809 92.5351 32.1358 92.5351 31.8751C92.5351 31.6495 93.0303 31.5542 93.6337 31.6645C95.5316 32.0155 99.7763 29.7392 99.1264 28.7164C99.0078 28.5309 99.1471 28.1098 99.4256 27.7789C99.766 27.3778 99.9826 24.8308 100.065 20.168C100.132 16.3124 100.4 12.2813 100.658 11.2084C101.03 9.65413 100.993 8.88702 100.483 7.44807C99.178 3.75795 98.3425 2.72512 95.6709 1.45664C94.9127 1.09564 94.1752 0.619338 94.0308 0.398733C93.7162 -0.0976294 91.8079 -0.142753 91.5036 0.333554Z" fill="#DD0200"/>
<path fill-rule="evenodd" clip-rule="evenodd" d="M90.5481 9.28251C90.3727 9.56328 90.1045 10.3705 89.9549 11.0824C89.7228 12.1905 89.4289 12.4261 87.8816 12.742C85.9063 13.1481 84.7716 12.6367 84.7716 11.3381C84.7716 10.9421 84.4106 10.3003 83.9722 9.91424C83.0387 9.09199 82.3683 9.59838 82.1259 11.3181C82.0072 12.1554 81.6668 12.4061 80.3878 12.6066C78.7838 12.8573 77.4635 13.6244 77.4635 14.3013C77.4635 14.5018 78.5414 14.6673 79.8669 14.6673C81.5946 14.6673 82.2187 14.8127 82.0897 15.1887C81.8886 15.7904 79.0984 17.8711 77.0457 18.9591C75.8853 19.5707 75.7409 19.8014 76.1793 20.3178C76.9941 21.2754 77.9844 21.0699 80.2898 19.4705L82.4095 18.0014L82.6261 20.6888C82.7448 22.1679 83.0026 23.5316 83.1986 23.7221C83.6937 24.1984 84.7768 22.6592 84.7768 21.481C84.7768 20.6888 85.0089 20.5133 86.0507 20.5133C86.8656 20.5133 87.8765 20.042 88.8461 19.2148L90.3675 17.9162V20.2225C90.3675 22.9249 90.6564 23.8525 91.497 23.8525C92.3377 23.8525 92.9463 22.0726 92.9463 19.3501V16.9887L94.7927 18.7485C96.768 20.6337 98.0367 20.9345 99.2126 19.7964C100.058 18.9741 100.26 19.1646 95.5302 16.2266L92.7348 14.4918L94.2563 14.2361C97.1651 13.7448 97.6087 12.5665 94.8855 12.5665C93.3434 12.5665 92.9927 12.2557 92.3068 10.3003C91.8323 8.94659 91.0535 8.49034 90.5584 9.26747L90.5481 9.28251ZM89.2071 15.9007L87.9951 17.5452L86.5974 16.2366C85.8289 15.5146 85.1997 14.7726 85.1997 14.5921C85.1997 14.4116 86.3756 14.2562 87.8094 14.2562H90.4191L89.2071 15.9007ZM86.0868 17.841C86.551 18.3875 86.5458 18.563 86.0301 18.8788C85.045 19.4855 84.7665 19.3401 84.7665 18.2271C84.7665 17.0338 85.2668 16.8834 86.0817 17.841H86.0868Z" fill="#F7EACA"/>
<path d="M4.50766 23.9206C5.66294 23.8354 6.71507 23.6499 7.66405 23.349C8.61303 23.0532 9.42791 22.7424 10.1087 22.4215C10.7895 22.1006 11.5064 21.6745 12.2697 21.148L15.1218 24.5373C15.0857 24.5524 14.9361 24.6627 14.6628 24.8582C14.3894 25.0537 14.0129 25.2944 13.5281 25.5752C13.0433 25.8559 12.4605 26.1568 11.7694 26.4776C11.0835 26.7985 10.3098 27.0943 9.4537 27.3701C8.59755 27.6408 7.66405 27.8715 6.65318 28.052C5.64231 28.2324 4.56955 28.3227 3.4349 28.3227H0V9.76678H4.50766V23.9206Z" fill="white"/>
<path d="M15.8789 9.76872H25.1211V14.1507H22.7539V23.9476H25.1211V28.3296H15.8789V23.9476H18.2462V14.1457H15.8789V9.7637V9.76872Z" fill="white"/>
<path d="M45.0763 9.76872V28.3246H40.5686V27.2116C40.5686 26.0083 40.4139 24.8501 40.0993 23.737C39.7847 22.624 39.336 21.5761 38.748 20.5934C38.1652 19.6107 37.4535 18.7082 36.6231 17.886C35.7928 17.0637 34.8592 16.3418 33.8226 15.7351V28.3296H29.3149V14.1959C29.1808 14.1808 29.0364 14.1658 28.8972 14.1608C28.7528 14.1507 28.6135 14.1507 28.4794 14.1507H26.3906V9.76872H28.4794C29.6141 9.76872 30.7487 9.91913 31.8782 10.2149C33.0077 10.5108 34.0908 10.9219 35.1377 11.4383C36.1847 11.9547 37.1646 12.5664 38.0878 13.2683C39.011 13.9702 39.8414 14.7323 40.5686 15.5546V9.7637H45.0763V9.76872Z" fill="white"/>
<path d="M47.3672 7.39072H51.2095L50.6009 14.1443H47.9551L47.3723 7.39072H47.3672Z" fill="white"/>
<path d="M64.2934 7.36618H68.8011V14.1448H58.0064V16.8672H68.8011V22.237C68.8011 23.0793 68.636 23.8715 68.3059 24.6135C67.9759 25.3555 67.5323 25.9973 66.9701 26.5438C66.408 27.0903 65.753 27.5215 64.9948 27.8424C64.2367 28.1632 63.4269 28.3237 62.5656 28.3237H53.5039V23.9417H62.5656C63.0401 23.9417 63.4476 23.7762 63.788 23.4453C64.1284 23.1144 64.2986 22.7133 64.2986 22.232V21.2192H53.5039V9.76777H64.2986V7.36618H64.2934Z" fill="white"/>
<path d="M123.057 16.4712C124.362 17.4137 125.398 18.592 126.162 20.0109C126.925 21.4298 127.307 22.979 127.307 24.6636V25.9271H122.799V24.6636C122.799 23.8564 122.644 23.0943 122.33 22.3874C122.015 21.6805 121.587 21.0588 121.045 20.5323C120.504 20.0059 119.864 19.5897 119.137 19.2839C118.405 18.978 117.626 18.8276 116.796 18.8276H116.084V25.9271H111.576V18.8276H109.08V14.4707H111.576V7.36618H116.084V14.4657H116.362C117.193 14.4657 117.972 14.3152 118.704 14.0094C119.431 13.7036 120.071 13.2874 120.612 12.761C121.154 12.2345 121.582 11.6128 121.896 10.9059C122.211 10.199 122.366 9.43686 122.366 8.62965V7.36618H126.873V8.62965C126.873 10.214 126.528 11.683 125.842 13.0367C125.156 14.3905 124.228 15.5336 123.057 16.4762V16.4712Z" fill="white"/>
<path d="M129.344 7.36618H138.586V11.7482H136.219V21.5451H138.586V25.9271H129.344V21.5451H131.711V11.7482H129.344V7.36618Z" fill="white"/>
<path d="M139.855 7.36618H155.967V11.7482H150.165V25.9271H145.658V11.7482H139.855V7.36618Z" fill="white"/>
<path d="M157.242 7.36618H175.923V11.7482H164.7V19.3691C164.7 19.9607 164.917 20.4721 165.35 20.9033C165.783 21.3345 166.314 21.5451 166.938 21.5451H175.923V25.9271H166.938C166.005 25.9271 165.133 25.7516 164.318 25.4057C163.503 25.0597 162.792 24.5884 162.178 23.9968C161.564 23.4052 161.085 22.7083 160.729 21.9161C160.373 21.1239 160.192 20.2766 160.192 19.3691V11.7482H157.242V7.36618Z" fill="white"/>
<path d="M190.632 7.36618H195.114V25.9221H187.935V21.5401H190.632V18.5469H183.886V20.5774C183.886 21.8459 183.706 22.9389 183.339 23.8414C182.973 24.7489 182.54 25.5059 182.029 26.1176C181.519 26.7293 180.998 27.2106 180.462 27.5666C179.925 27.9226 179.492 28.1733 179.152 28.3187L177.192 24.4079C177.274 24.3728 177.439 24.2926 177.677 24.1623C177.914 24.0319 178.161 23.8163 178.414 23.5205C178.667 23.2247 178.894 22.8336 179.09 22.3573C179.286 21.881 179.384 21.2844 179.384 20.5774V18.5469H176.434V14.1648H179.384V7.36618H183.891V14.1698H190.637V7.36618H190.632Z" fill="white"/>
<path d="M197.15 7.36618H214.356V11.7482H204.634V14.7916H212.422V18.7274H204.634V21.5501H214.356V25.9321H197.15V21.5501H200.126V11.7482H197.15V7.36618Z" fill="white"/>
<path d="M234.311 7.36618V25.9221H229.803V24.809C229.803 23.6057 229.648 22.4476 229.334 21.3345C229.019 20.2215 228.57 19.1736 227.982 18.1909C227.394 17.2082 226.688 16.3057 225.857 15.4835C225.027 14.6562 224.094 13.9392 223.057 13.3326V25.9271H218.549V11.7933C218.415 11.7783 218.271 11.7632 218.132 11.7582C217.992 11.7532 217.848 11.7482 217.714 11.7482H215.625V7.36618H217.714C218.848 7.36618 219.983 7.51659 221.113 7.8124C222.242 8.10822 223.325 8.51935 224.372 9.03576C225.419 9.55218 226.399 10.1639 227.322 10.8658C228.245 11.5677 229.076 12.3298 229.803 13.1521V7.36618H234.311Z" fill="white"/>
<path d="M114.305 37.8963H110.834L110.334 38.9793H109.086L112.531 31.7043H112.598L116.049 38.9793H114.8L114.3 37.8963H114.305ZM113.862 36.9387L112.572 34.151L111.283 36.9387H113.862Z" fill="#DD0200"/>
<path d="M120.876 37.7313L121.784 37.0996C122.109 37.6561 122.723 37.977 123.424 37.977C124.249 37.977 124.868 37.5909 124.868 37.0494C124.868 36.3926 123.904 35.9915 123.048 35.6355C122.186 35.2645 121.232 34.8333 121.232 33.7103C121.232 32.5872 122.274 31.7298 123.594 31.7298C124.641 31.7298 125.42 32.2212 125.724 33.0033L124.868 33.5799C124.641 33.0986 124.136 32.8278 123.605 32.8278C122.929 32.8278 122.393 33.234 122.393 33.7403C122.393 34.2969 123.068 34.4974 123.96 34.8684C125.121 35.3648 126.023 35.9063 126.023 37.0294C126.023 38.2928 124.894 39.1101 123.409 39.1101C122.202 39.1101 121.289 38.5636 120.871 37.7413L120.876 37.7313Z" fill="#DD0200"/>
<path d="M131.676 31.8558H132.826V38.9854H131.676V31.8558Z" fill="#DD0200"/>
<path d="M143.512 37.8963H140.041L139.541 38.9793H138.293L141.738 31.7043H141.805L145.256 38.9793H144.007L143.507 37.8963H143.512ZM143.064 36.9387L141.774 34.151L140.485 36.9387H143.064Z" fill="#DD0200"/>
<path d="M156.624 31.8351V39.1051H156.567L151.879 34.342V38.9897H150.729V31.7298H150.785L155.468 36.4829V31.8351H156.624Z" fill="#DD0200"/>
<path d="M169.732 35.4251C169.732 33.4196 171.455 31.7349 173.518 31.7349C174.467 31.75 175.349 32.1411 176.066 32.8229L175.395 33.7053C174.88 33.204 174.214 32.8731 173.492 32.8731C172.162 32.8731 170.893 34.0062 170.893 35.4351C170.893 36.864 172.182 37.9821 173.492 37.9821C174.245 37.9821 174.89 37.6211 175.395 37.1348L176.061 38.0372C175.426 38.6439 174.622 39.1052 173.533 39.1052C171.455 39.1052 169.732 37.4406 169.732 35.4301V35.4251Z" fill="#DD0200"/>
<path d="M181.568 36.2829V31.8558H182.724V36.2779C182.724 37.2656 183.435 37.9826 184.333 37.9826C185.23 37.9826 185.952 37.2606 185.952 36.2779V31.8558H187.113V36.2829C187.113 37.9174 185.901 39.1157 184.338 39.1157C182.775 39.1157 181.568 37.9174 181.568 36.2829Z" fill="#DD0200"/>
<path d="M193.107 31.8558H194.258V38.9854H193.107V31.8558Z" fill="#DD0200"/>
<path d="M199.906 37.7313L200.813 37.0996C201.138 37.6561 201.752 37.977 202.453 37.977C203.279 37.977 203.897 37.5909 203.897 37.0494C203.897 36.3926 202.933 35.9915 202.077 35.6355C201.216 35.2645 200.261 34.8333 200.261 33.7103C200.261 32.5872 201.303 31.7298 202.624 31.7298C203.671 31.7298 204.449 32.2212 204.754 33.0033L203.897 33.5799C203.671 33.0986 203.165 32.8278 202.634 32.8278C201.958 32.8278 201.422 33.234 201.422 33.7403C201.422 34.2969 202.097 34.4974 202.99 34.8684C204.15 35.3648 205.053 35.9063 205.053 37.0294C205.053 38.2928 203.923 39.1101 202.438 39.1101C201.231 39.1101 200.318 38.5636 199.9 37.7413L199.906 37.7313Z" fill="#DD0200"/>
<path d="M210.703 31.8558H211.853V38.9854H210.703V31.8558Z" fill="#DD0200"/>
<path d="M223.819 31.8351V39.1051H223.762L219.074 34.342V38.9897H217.924V31.7298H217.981L222.664 36.4829V31.8351H223.819Z" fill="#DD0200"/>
<path d="M231.041 32.9536V34.7786H233.815V35.8916H231.041V37.862H234.259V38.9751H229.891V31.8455H234.259V32.9486H231.041V32.9536Z" fill="#DD0200"/>
</svg>
